<?xml version="1.0" standalone="no"?>
<!DOCTYPE svg PUBLIC "-//W3C//DTD SVG 20010904//EN"
 "http://www.w3.org/TR/2001/REC-SVG-20010904/DTD/svg10.dtd">
<svg version="1.0" xmlns="http://www.w3.org/2000/svg"
 width="500.000000pt" height="500.000000pt" viewBox="0 0 500.000000 500.000000"
 preserveAspectRatio="xMidYMid meet">

<g transform="translate(0.000000,500.000000) scale(0.100000,-0.100000)"
fill="#000000" stroke="none">
<path d="M0 2500 l0 -2500 2500 0 2500 0 0 2500 0 2500 -2500 0 -2500 0 0
-2500z m2599 1759 c34 -12 61 -53 61 -93 0 -22 6 -26 58 -36 31 -7 84 -22 118
-34 l60 -22 18 23 c20 27 54 30 96 8 39 -20 50 -43 50 -105 0 -45 5 -57 34
-92 52 -61 104 -174 128 -281 12 -53 20 -98 17 -100 -2 -2 -23 -7 -45 -9 l-41
-6 -22 84 c-11 46 -35 114 -52 152 l-32 67 -13 -90 c-33 -217 -58 -366 -105
-598 -27 -136 -49 -253 -49 -260 0 -6 38 -29 85 -51 100 -46 197 -128 238
-203 38 -71 59 -172 58 -288 0 -169 -42 -283 -146 -393 -33 -36 -82 -79 -108
-97 l-48 -33 58 -6 c32 -4 92 -16 133 -26 41 -10 125 -21 185 -24 172 -9 295
-50 323 -108 18 -38 2 -65 -46 -74 -20 -4 -111 -2 -202 4 -331 24 -523 12
-769 -49 l-128 -32 -56 26 c-38 17 -61 35 -71 56 -18 35 -20 35 -156 -2 -108
-29 -161 -32 -201 -12 -91 46 -102 85 -64 214 l27 91 -65 70 c-103 111 -181
287 -202 453 l-7 57 49 0 49 0 27 -105 c30 -124 90 -253 144 -315 l39 -43 52
209 c29 115 79 326 111 469 l58 260 -81 39 c-105 51 -203 145 -247 239 -32 70
-59 204 -59 299 0 325 235 590 570 643 51 8 60 17 60 60 0 65 40 88 109 64z"/>
<path d="M2383 4025 c-194 -42 -349 -187 -398 -371 -10 -36 -16 -100 -16 -164
0 -172 41 -281 136 -368 52 -48 152 -108 162 -98 3 3 14 47 25 98 17 84 168
903 168 914 0 5 -4 5 -77 -11z"/>
<path d="M2641 3947 c-25 -199 -65 -434 -117 -696 -30 -151 -53 -280 -51 -286
3 -6 45 -18 93 -28 49 -10 96 -20 105 -23 18 -5 52 155 160 760 50 281 51 290
33 303 -19 14 -124 47 -180 57 l-32 5 -11 -92z"/>
<path d="M2401 2668 c-24 -106 -79 -328 -122 -493 -43 -165 -74 -304 -70 -308
11 -11 103 -35 165 -42 l52 -7 47 179 c62 234 189 794 183 808 -2 6 -41 19
-87 29 -46 10 -93 20 -104 22 -19 5 -24 -10 -64 -188z"/>
<path d="M2825 2633 c-24 -105 -188 -762 -201 -805 -4 -14 1 -16 33 -12 170
24 280 73 371 167 94 99 132 195 132 338 0 150 -32 241 -111 319 -45 45 -153
110 -182 110 -11 0 -22 -31 -42 -117z"/>
<path d="M2170 1747 c0 -14 4 -28 9 -32 12 -7 121 5 121 14 0 3 -21 11 -47 18
-27 6 -56 14 -65 18 -14 6 -18 2 -18 -18z"/>
</g>
</svg>
